{
  "asset": {
    "version": "2.0",
    "generator": "babylon.js glTF exporter for Maya 2018 v20200513.4"
  },
  "scene": 0,
  "scenes": [
    {
      "nodes": [
        0,
        1,
        2
      ]
    }
  ],
  "nodes": [
    {
      "mesh": 0,
      "scale": [
        8.003562,
        8.003562,
        8.003562
      ],
      "name": "pSphere1"
    },
    {
      "mesh": 1,
      "translation": [
        0.17668356,
        0,
        -0.240345269
      ],
      "scale": [
        7.7551055,
        7.7551055,
        7.7551055
      ],
      "name": "pCylinder1"
    },
    {
      "mesh": 2,
      "translation": [
        -0.265034944,
        0,
        0
      ],
      "scale": [
        13.7100782,
        13.7100782,
        13.7100782
      ],
      "name": "pCube1"
    }
  ],
  "meshes": [
    {
      "primitives": [
        {
          "attributes": {
            "POSITION": 1,
            "TANGENT": 2,
            "NORMAL": 3,
            "TEXCOORD_0": 4
          },
          "indices": 0,
          "material": 0
        }
      ],
      "name": "pSphere1"
    },
    {
      "primitives": [
        {
          "attributes": {
            "POSITION": 6,
            "TANGENT": 7,
            "NORMAL": 8,
            "TEXCOORD_0": 9
          },
          "indices": 5,
          "material": 1
        }
      ],
      "name": "pCylinder1"
    },
    {
      "primitives": [
        {
          "attributes": {
            "POSITION": 11,
            "TANGENT": 12,
            "NORMAL": 13,
            "TEXCOORD_0": 14
          },
          "indices": 10,
          "material": 2
        }
      ],
      "name": "pCube1"
    }
  ],
  "accessors": [
    {
      "bufferView": 0,
      "componentType": 5123,
      "count": 2280,
      "type": "SCALAR",
      "name": "accessorIndices"
    },
    {
      "bufferView": 1,
      "componentType": 5126,
      "count": 439,
      "max": [
        0.01,
        0.01,
        0.0100000007
      ],
      "min": [
        -0.0100000026,
        -0.01,
        -0.0100000044
      ],
      "type": "VEC3",
      "name": "accessorPositions"
    },
    {
      "bufferView": 2,
      "componentType": 5126,
      "count": 439,
      "type": "VEC4",
      "name": "accessorTangents"
    },
    {
      "bufferView": 1,
      "byteOffset": 5268,
      "componentType": 5126,
      "count": 439,
      "type": "VEC3",
      "name": "accessorNormals"
    },
    {
      "bufferView": 3,
      "componentType": 5126,
      "count": 439,
      "type": "VEC2",
      "name": "accessorUVs"
    },
    {
      "bufferView": 0,
      "byteOffset": 4560,
      "componentType": 5123,
      "count": 240,
      "type": "SCALAR",
      "name": "accessorIndices"
    },
    {
      "bufferView": 1,
      "byteOffset": 10536,
      "componentType": 5126,
      "count": 84,
      "max": [
        0.01,
        0.01,
        0.0100000007
      ],
      "min": [
        -0.0100000026,
        -0.01,
        -0.0100000044
      ],
      "type": "VEC3",
      "name": "accessorPositions"
    },
    {
      "bufferView": 2,
      "byteOffset": 7024,
      "componentType": 5126,
      "count": 84,
      "type": "VEC4",
      "name": "accessorTangents"
    },
    {
      "bufferView": 1,
      "byteOffset": 11544,
      "componentType": 5126,
      "count": 84,
      "type": "VEC3",
      "name": "accessorNormals"
    },
    {
      "bufferView": 3,
      "byteOffset": 3512,
      "componentType": 5126,
      "count": 84,
      "type": "VEC2",
      "name": "accessorUVs"
    },
    {
      "bufferView": 0,
      "byteOffset": 5040,
      "componentType": 5123,
      "count": 36,
      "type": "SCALAR",
      "name": "accessorIndices"
    },
    {
      "bufferView": 1,
      "byteOffset": 12552,
      "componentType": 5126,
      "count": 24,
      "max": [
        0.005,
        0.005,
        0.005
      ],
      "min": [
        -0.005,
        -0.005,
        -0.005
      ],
      "type": "VEC3",
      "name": "accessorPositions"
    },
    {
      "bufferView": 2,
      "byteOffset": 8368,
      "componentType": 5126,
      "count": 24,
      "type": "VEC4",
      "name": "accessorTangents"
    },
    {
      "bufferView": 1,
      "byteOffset": 12840,
      "componentType": 5126,
      "count": 24,
      "type": "VEC3",
      "name": "accessorNormals"
    },
    {
      "bufferView": 3,
      "byteOffset": 4184,
      "componentType": 5126,
      "count": 24,
      "type": "VEC2",
      "name": "accessorUVs"
    }
  ],
  "bufferViews": [
    {
      "buffer": 0,
      "byteLength": 5112,
      "name": "bufferViewScalar",
      "byteOffset": 0
    },
    {
      "buffer": 0,
      "byteOffset": 5112,
      "byteLength": 13128,
      "byteStride": 12,
      "name": "bufferViewFloatVec3"
    },
    {
      "buffer": 0,
      "byteOffset": 18240,
      "byteLength": 8752,
      "byteStride": 16,
      "name": "bufferViewFloatVec4"
    },
    {
      "buffer": 0,
      "byteOffset": 26992,
      "byteLength": 4376,
      "byteStride": 8,
      "name": "bufferViewFloatVec2"
    }
  ],
  "buffers": [
    {
      "uri": "multiple_objects_data.bin",
      "byteLength": 31368
    }
  ],
  "materials": [
    {
      "pbrMetallicRoughness": {
        "baseColorFactor": [
          1,
          0.4285,
          0.4285,
          1
        ],
        "metallicFactor": 0,
        "roughnessFactor": 0.33
      },
      "name": "StingrayPBS1"
    },
    {
      "pbrMetallicRoughness": {
        "baseColorFactor": [
          0.2129,
          0.4282,
          0.4282,
          1
        ],
        "metallicFactor": 0,
        "roughnessFactor": 0.33
      },
      "name": "StingrayPBS2"
    },
    {
      "pbrMetallicRoughness": {
        "baseColorFactor": [
          1,
          0.7502,
          0.4282,
          1
        ],
        "metallicFactor": 0,
        "roughnessFactor": 0.33
      },
      "name": "StingrayPBS3"
    }
  ]
}