{
  "asset": {
    "version": "2.0",
    "generator": "THREE.GLTFExporter"
  },
  "scenes": [
    {
      "nodes": [
        1
      ],
      "name": "AuxScene"
    }
  ],
  "scene": 0,
  "nodes": [
    {
      "translation": [
        0,
        -0.47777948931248315,
        0
      ],
      "scale": [
        0.2582818269729614,
        0.2582818269729614,
        0.2582818269729614
      ],
      "name": "pSphere1",
      "mesh": 0
    },
    {
      "children": [
        0
      ]
    }
  ],
  "bufferViews": [
    {
      "buffer": 0,
      "byteOffset": 0,
      "byteLength": 27360,
      "target": 34962,
      "byteStride": 12
    },
    {
      "buffer": 0,
      "byteOffset": 27360,
      "byteLength": 27360,
      "target": 34962,
      "byteStride": 12
    },
    {
      "buffer": 0,
      "byteOffset": 54720,
      "byteLength": 18240,
      "target": 34962,
      "byteStride": 8
    },
    {
      "buffer": 0,
      "byteOffset": 72960,
      "byteLength": 4560,
      "target": 34963
    },
    {
      "buffer": 0,
      "byteOffset": 77520,
      "byteLength": 80
    },
    {
      "buffer": 0,
      "byteOffset": 77600,
      "byteLength": 240
    },
    {
      "buffer": 0,
      "byteOffset": 77840,
      "byteLength": 8
    },
    {
      "buffer": 0,
      "byteOffset": 77848,
      "byteLength": 24
    },
    {
      "buffer": 0,
      "byteOffset": 77872,
      "byteLength": 8
    },
    {
      "buffer": 0,
      "byteOffset": 77880,
      "byteLength": 32
    },
    {
      "buffer": 0,
      "byteOffset": 77912,
      "byteLength": 84
    },
    {
      "buffer": 0,
      "byteOffset": 77996,
      "byteLength": 252
    },
    {
      "buffer": 0,
      "byteOffset": 78248,
      "byteLength": 8
    },
    {
      "buffer": 0,
      "byteOffset": 78256,
      "byteLength": 24
    },
    {
      "buffer": 0,
      "byteOffset": 78280,
      "byteLength": 8
    },
    {
      "buffer": 0,
      "byteOffset": 78288,
      "byteLength": 32
    }
  ],
  "buffers": [
    {
      "byteLength": 78320,
      "uri": "data:application/octet-stream;base64,"
    }
  ],
  "accessors": [
    {
      "bufferView": 0,
      "componentType": 5126,
      "count": 2280,
      "max": [
        1,
        1,
        1.0000001192092896
      ],
      "min": [
        -1.000000238418579,
        -1,
        -1.0000004768371582
      ],
      "type": "VEC3"
    },
    {
      "bufferView": 1,
      "componentType": 5126,
      "count": 2280,
      "max": [
        1,
        1,
        0.9999999403953552
      ],
      "min": [
        -0.9999999403953552,
        -1,
        -1
      ],
      "type": "VEC3"
    },
    {
      "bufferView": 2,
      "componentType": 5126,
      "count": 2280,
      "max": [
        1.0000001192092896,
        1
      ],
      "min": [
        0,
        0
      ],
      "type": "VEC2"
    },
    {
      "bufferView": 3,
      "componentType": 5123,
      "count": 2280,
      "max": [
        2279
      ],
      "min": [
        0
      ],
      "type": "SCALAR"
    },
    {
      "bufferView": 4,
      "componentType": 5126,
      "count": 20,
      "max": [
        0.8333333134651184
      ],
      "min": [
        0.0416666679084301
      ],
      "type": "SCALAR"
    },
    {
      "bufferView": 5,
      "componentType": 5126,
      "count": 20,
      "max": [
        0,
        0,
        0
      ],
      "min": [
        0,
        -0.5276904702186584,
        0
      ],
      "type": "VEC3"
    },
    {
      "bufferView": 6,
      "componentType": 5126,
      "count": 2,
      "max": [
        0.8333333134651184
      ],
      "min": [
        0.0416666679084301
      ],
      "type": "SCALAR"
    },
    {
      "bufferView": 7,
      "componentType": 5126,
      "count": 2,
      "max": [
        0.2582818269729614,
        0.2582818269729614,
        0.2582818269729614
      ],
      "min": [
        0.2582818269729614,
        0.2582818269729614,
        0.2582818269729614
      ],
      "type": "VEC3"
    },
    {
      "bufferView": 8,
      "componentType": 5126,
      "count": 2,
      "max": [
        0.8333333134651184
      ],
      "min": [
        0.0416666679084301
      ],
      "type": "SCALAR"
    },
    {
      "bufferView": 9,
      "componentType": 5126,
      "count": 2,
      "max": [
        0,
        0,
        0,
        1
      ],
      "min": [
        0,
        0,
        0,
        1
      ],
      "type": "VEC4"
    },
    {
      "bufferView": 10,
      "componentType": 5126,
      "count": 21,
      "max": [
        2.0833332538604736
      ],
      "min": [
        1.25
      ],
      "type": "SCALAR"
    },
    {
      "bufferView": 11,
      "componentType": 5126,
      "count": 21,
      "max": [
        0,
        0,
        0
      ],
      "min": [
        -0.635508120059967,
        0,
        0
      ],
      "type": "VEC3"
    },
    {
      "bufferView": 12,
      "componentType": 5126,
      "count": 2,
      "max": [
        2.0833332538604736
      ],
      "min": [
        1.25
      ],
      "type": "SCALAR"
    },
    {
      "bufferView": 13,
      "componentType": 5126,
      "count": 2,
      "max": [
        0.2582818269729614,
        0.2582818269729614,
        0.2582818269729614
      ],
      "min": [
        0.2582818269729614,
        0.2582818269729614,
        0.2582818269729614
      ],
      "type": "VEC3"
    },
    {
      "bufferView": 14,
      "componentType": 5126,
      "count": 2,
      "max": [
        2.0833332538604736
      ],
      "min": [
        1.25
      ],
      "type": "SCALAR"
    },
    {
      "bufferView": 15,
      "componentType": 5126,
      "count": 2,
      "max": [
        0,
        0,
        0,
        1
      ],
      "min": [
        0,
        0,
        0,
        1
      ],
      "type": "VEC4"
    }
  ],
  "materials": [
    {
      "pbrMetallicRoughness": {
        "baseColorFactor": [
          0.4000000059604645,
          0.4000000059604645,
          0.4000000059604645,
          1
        ],
        "metallicFactor": 0.5,
        "roughnessFactor": 0.5
      },
      "name": "lambert1"
    }
  ],
  "meshes": [
    {
      "primitives": [
        {
          "mode": 4,
          "attributes": {
            "POSITION": 0,
            "NORMAL": 1,
            "TEXCOORD_0": 2
          },
          "indices": 3,
          "material": 0
        }
      ]
    }
  ],
  "animations": [
    {
      "name": "verticle",
      "samplers": [
        {
          "input": 4,
          "output": 5,
          "interpolation": "LINEAR"
        },
        {
          "input": 6,
          "output": 7,
          "interpolation": "LINEAR"
        },
        {
          "input": 8,
          "output": 9,
          "interpolation": "LINEAR"
        }
      ],
      "channels": [
        {
          "sampler": 0,
          "target": {
            "node": 0,
            "path": "translation"
          }
        },
        {
          "sampler": 1,
          "target": {
            "node": 0,
            "path": "scale"
          }
        },
        {
          "sampler": 2,
          "target": {
            "node": 0,
            "path": "rotation"
          }
        }
      ]
    },
    {
      "name": "horizontal",
      "samplers": [
        {
          "input": 10,
          "output": 11,
          "interpolation": "LINEAR"
        },
        {
          "input": 12,
          "output": 13,
          "interpolation": "LINEAR"
        },
        {
          "input": 14,
          "output": 15,
          "interpolation": "LINEAR"
        }
      ],
      "channels": [
        {
          "sampler": 0,
          "target": {
            "node": 0,
            "path": "translation"
          }
        },
        {
          "sampler": 1,
          "target": {
            "node": 0,
            "path": "scale"
          }
        },
        {
          "sampler": 2,
          "target": {
            "node": 0,
            "path": "rotation"
          }
        }
      ]
    }
  ]
}